<mxfile host="app.diagrams.net" modified="2021-02-18T02:56:04.324Z" agent="5.0 (Windows NT 10.0; Win64; x64) AppleWebKit/537.36 (KHTML, like Gecko) Chrome/88.0.4324.150 Safari/537.36" etag="SiZYs12UEloRZ9d4BDx7" version="14.4.2" type="github">
  <diagram id="prtHgNgQTEPvFCAcTncT" name="Page-1">
    <mxGraphModel dx="1550" dy="844" grid="1" gridSize="10" guides="1" tooltips="1" connect="1" arrows="1" fold="1" page="1" pageScale="1" pageWidth="827" pageHeight="1169" math="0" shadow="0">
      <root>
        <mxCell id="0" />
        <mxCell id="1" parent="0" />
        <mxCell id="awJS6m4cIrWAFRzJ9JBw-1" value="申请公函盖章&lt;br&gt;负责人:" style="rhombus;whiteSpace=wrap;html=1;" vertex="1" parent="1">
          <mxGeometry x="130" y="10" width="120" height="120" as="geometry" />
        </mxCell>
        <mxCell id="awJS6m4cIrWAFRzJ9JBw-2" value="&lt;span&gt;后台认证操作&lt;/span&gt;&lt;br&gt;&lt;span&gt;负责人:陈缘&lt;/span&gt;" style="rhombus;whiteSpace=wrap;html=1;" vertex="1" parent="1">
          <mxGeometry x="320" y="320" width="120" height="120" as="geometry" />
        </mxCell>
        <mxCell id="awJS6m4cIrWAFRzJ9JBw-3" value="对公账户信息确认&lt;br&gt;负责人:" style="rhombus;whiteSpace=wrap;html=1;" vertex="1" parent="1">
          <mxGeometry x="520" y="10" width="120" height="120" as="geometry" />
        </mxCell>
        <mxCell id="awJS6m4cIrWAFRzJ9JBw-4" value="工商营业执照确认&lt;br&gt;负责人:" style="rhombus;whiteSpace=wrap;html=1;" vertex="1" parent="1">
          <mxGeometry x="320" y="10" width="120" height="120" as="geometry" />
        </mxCell>
        <mxCell id="awJS6m4cIrWAFRzJ9JBw-5" value="对公账户收款确认&lt;br&gt;负责人:" style="rhombus;whiteSpace=wrap;html=1;align=center;" vertex="1" parent="1">
          <mxGeometry x="320" y="160" width="120" height="120" as="geometry" />
        </mxCell>
        <mxCell id="awJS6m4cIrWAFRzJ9JBw-6" value="认证完成" style="rhombus;whiteSpace=wrap;html=1;" vertex="1" parent="1">
          <mxGeometry x="320" y="680" width="120" height="120" as="geometry" />
        </mxCell>
        <mxCell id="awJS6m4cIrWAFRzJ9JBw-12" value="" style="endArrow=classic;html=1;entryX=0;entryY=0.5;entryDx=0;entryDy=0;exitX=0.5;exitY=1;exitDx=0;exitDy=0;" edge="1" parent="1" source="awJS6m4cIrWAFRzJ9JBw-1" target="awJS6m4cIrWAFRzJ9JBw-5">
          <mxGeometry width="50" height="50" relative="1" as="geometry">
            <mxPoint x="180" y="160" as="sourcePoint" />
            <mxPoint x="230" y="110" as="targetPoint" />
          </mxGeometry>
        </mxCell>
        <mxCell id="awJS6m4cIrWAFRzJ9JBw-13" value="" style="endArrow=classic;html=1;exitX=0.5;exitY=1;exitDx=0;exitDy=0;entryX=0.5;entryY=0;entryDx=0;entryDy=0;" edge="1" parent="1" source="awJS6m4cIrWAFRzJ9JBw-4" target="awJS6m4cIrWAFRzJ9JBw-5">
          <mxGeometry width="50" height="50" relative="1" as="geometry">
            <mxPoint x="430" y="460" as="sourcePoint" />
            <mxPoint x="480" y="410" as="targetPoint" />
          </mxGeometry>
        </mxCell>
        <mxCell id="awJS6m4cIrWAFRzJ9JBw-14" value="" style="endArrow=classic;html=1;exitX=0.5;exitY=1;exitDx=0;exitDy=0;entryX=1;entryY=0.5;entryDx=0;entryDy=0;" edge="1" parent="1" source="awJS6m4cIrWAFRzJ9JBw-3" target="awJS6m4cIrWAFRzJ9JBw-5">
          <mxGeometry width="50" height="50" relative="1" as="geometry">
            <mxPoint x="430" y="460" as="sourcePoint" />
            <mxPoint x="180" y="530" as="targetPoint" />
          </mxGeometry>
        </mxCell>
        <mxCell id="awJS6m4cIrWAFRzJ9JBw-18" value="" style="endArrow=classic;html=1;exitX=0.5;exitY=1;exitDx=0;exitDy=0;" edge="1" parent="1" source="awJS6m4cIrWAFRzJ9JBw-2">
          <mxGeometry width="50" height="50" relative="1" as="geometry">
            <mxPoint x="430" y="470" as="sourcePoint" />
            <mxPoint x="380" y="480" as="targetPoint" />
          </mxGeometry>
        </mxCell>
        <mxCell id="awJS6m4cIrWAFRzJ9JBw-19" value="" style="endArrow=classic;html=1;entryX=0.5;entryY=0;entryDx=0;entryDy=0;exitX=0.5;exitY=1;exitDx=0;exitDy=0;" edge="1" parent="1" source="awJS6m4cIrWAFRzJ9JBw-5" target="awJS6m4cIrWAFRzJ9JBw-2">
          <mxGeometry width="50" height="50" relative="1" as="geometry">
            <mxPoint x="190" y="650" as="sourcePoint" />
            <mxPoint x="480" y="420" as="targetPoint" />
          </mxGeometry>
        </mxCell>
        <mxCell id="awJS6m4cIrWAFRzJ9JBw-21" value="" style="endArrow=classic;html=1;exitX=0.5;exitY=1;exitDx=0;exitDy=0;entryX=0.5;entryY=0;entryDx=0;entryDy=0;" edge="1" parent="1" source="awJS6m4cIrWAFRzJ9JBw-22" target="awJS6m4cIrWAFRzJ9JBw-6">
          <mxGeometry width="50" height="50" relative="1" as="geometry">
            <mxPoint x="380" y="670" as="sourcePoint" />
            <mxPoint x="480" y="420" as="targetPoint" />
          </mxGeometry>
        </mxCell>
        <mxCell id="awJS6m4cIrWAFRzJ9JBw-22" value="&lt;div&gt;认证过程与微信客服沟通并处理提交的资料出现的问题&lt;/div&gt;负责人:&lt;span&gt;陈缘&lt;/span&gt;" style="rounded=0;whiteSpace=wrap;html=1;shadow=0;gradientColor=none;" vertex="1" parent="1">
          <mxGeometry x="280" y="480" width="200" height="120" as="geometry" />
        </mxCell>
      </root>
    </mxGraphModel>
  </diagram>
</mxfile>
